<?xml version="1.0" encoding="UTF-8"?>
<svg version="1.1" xmlns="http://www.w3.org/2000/svg" width="1408" height="768">
<path d="M0 0 C464.64 0 929.28 0 1408 0 C1408 253.44 1408 506.88 1408 768 C943.36 768 478.72 768 0 768 C0 514.56 0 261.12 0 0 Z " fill="#F2F0E9" transform="translate(0,0)"/>
<path d="M0 0 C9.47569051 -0.02325394 18.95137107 -0.04098128 28.42708397 -0.05181217 C32.82786447 -0.05701258 37.22862533 -0.06405815 41.62939453 -0.07543945 C45.88285132 -0.08636991 50.13628931 -0.0922982 54.38975906 -0.09487724 C56.00590943 -0.09671329 57.62205886 -0.10029834 59.23820114 -0.10573006 C84.05513013 -0.18575864 105.31308459 4.25600234 124 22 C137.97404042 36.50440829 145.90704277 56.40842444 155.01513672 74.13916016 C158.22728495 80.39062062 161.45768516 86.63265428 164.6875 92.875 C164.99684479 93.47297394 165.30618958 94.07094788 165.62490845 94.68704224 C167.74865241 98.79202831 169.87388616 102.89624072 172 107 C172.59071289 108.14017578 173.18142578 109.28035156 173.79003906 110.45507812 C175.46200926 113.67952539 177.13669093 116.90254653 178.8125 120.125 C179.31031982 121.08519043 179.80813965 122.04538086 180.32104492 123.03466797 C180.77842041 123.91268066 181.2357959 124.79069336 181.70703125 125.6953125 C182.1038208 126.45859863 182.50061035 127.22188477 182.90942383 128.00830078 C184.07868028 130.2121884 184.07868028 130.2121884 186 133 C185.73758649 138.551055 183.99878452 142.64460125 181.4375 147.4375 C181.10814453 148.07365234 180.77878906 148.70980469 180.43945312 149.36523438 C179.63546752 150.91494576 178.81902334 152.45818322 178 154 C173.94463222 152.64821074 173.67991564 150.99932208 171.77734375 147.2265625 C171.47599014 146.63624237 171.17463654 146.04592224 170.864151 145.43771362 C169.879616 143.50455793 168.90873827 141.56486504 167.9375 139.625 C167.25563691 138.28135262 166.57268741 136.93825603 165.88867188 135.59570312 C164.53271582 132.9331117 163.18069303 130.26858495 161.83154297 127.60253906 C159.60352338 123.20881412 157.31110757 118.85049513 155 114.5 C151.19833981 107.30974692 147.44957593 100.09258866 143.71536255 92.86712646 C142.75250421 91.00484344 141.78836853 89.14322649 140.82397461 87.28173828 C137.91087599 81.65535099 135.0064083 76.02525309 132.14425659 70.3727417 C131.21604173 68.5412167 130.28393996 66.71172318 129.35058594 64.8828125 C128.19901491 62.62369555 127.05455961 60.36093005 125.91894531 58.09375 C117.25922796 41.16482052 106.70221432 27.91089187 88.3203125 21.89453125 C80.15748596 19.69536975 72.41055764 18.68818479 63.9609375 18.5859375 C62.95406891 18.56657135 61.94720032 18.5472052 60.90982056 18.5272522 C57.73162998 18.46804392 54.553402 18.42130848 51.375 18.375 C49.20441233 18.33676603 47.03383896 18.29771126 44.86328125 18.2578125 C39.57564885 18.16239169 34.2879285 18.07717709 29 18 C29.33157608 18.63478775 29.66315216 19.2695755 30.004776 19.92359924 C36.68777833 32.71841422 43.34734751 45.5250045 49.98339844 58.34423828 C52.84612451 63.86816854 55.71837264 69.38598063 58.64526367 74.8762207 C59.25398315 76.02030396 59.25398315 76.02030396 59.875 77.1875 C60.18077972 77.76156586 60.48655945 78.33563171 60.80160522 78.92709351 C63.18640148 83.4209721 65.50029387 87.94487047 67.765625 92.5 C68.10836456 93.18724655 68.45110413 93.8744931 68.80422974 94.58256531 C69.87049772 96.72120824 70.93543782 98.86050752 72 101 C72.66095662 102.32788755 73.32192636 103.65576856 73.98291016 104.98364258 C74.30469238 105.63010742 74.62647461 106.27657227 74.95800781 106.94262695 C85.76763302 128.67027002 85.76763302 128.67027002 97.02294922 150.16943359 C97.92639179 151.86209037 98.8098144 153.5653918 99.69140625 155.26953125 C107.00558678 169.22949461 117.59738757 181.61993324 132.640625 187.2734375 C145.54338254 191.24680323 158.98978158 189.51709088 170.9375 183.52734375 C186.97826517 174.10339421 195.15877924 157.37741354 202.8125 141.125 C203.41896767 139.85179369 204.02615862 138.57893168 204.6340332 137.30639648 C206.14817423 134.13299078 207.65458527 130.95599403 209.1583252 127.77764893 C212.63913794 120.42604114 216.14640935 113.08691041 219.67333984 105.75732422 C220.57168398 103.89021001 221.46777738 102.0220115 222.36181641 100.15283203 C232.1008442 79.86290289 243.35920615 59.51699998 260 44 C260.78375 43.195625 261.5675 42.39125 262.375 41.5625 C276.84583763 27.43620613 294.12068657 15.78979363 313.88671875 10.57421875 C315.95808969 10.01138783 317.8842601 9.29872864 319.875 8.5 C337.78914227 1.7025389 357.24202843 0.51427226 376.19775391 0.71875 C379.18534503 0.75064422 382.17240969 0.75981132 385.16015625 0.765625 C387.06771485 0.77476994 388.97526809 0.78513754 390.8828125 0.796875 C391.77219513 0.80112488 392.66157776 0.80537476 393.57791138 0.80975342 C399.76516655 0.88258328 399.76516655 0.88258328 402 2 C402.97993697 45.43382162 397.96690575 91.62032093 376 130 C375.6390625 130.64356445 375.278125 131.28712891 374.90625 131.95019531 C370.25085985 140.20623878 365.23247582 147.82540574 359 155 C358.31421875 155.80695313 357.6284375 156.61390625 356.921875 157.4453125 C336.98770348 180.31941579 311.31016537 194.50993862 283.22412109 205.15234375 C281.22057484 205.91593459 279.22787887 206.70092144 277.23828125 207.5 C270.58061937 210.14730697 263.92459049 212.17441915 257 214 C254.24553332 226.8881836 251.80401352 239.74607801 250.0625 252.8125 C245.02346069 289.48763235 235.845431 325.35403108 205.35058594 349.29492188 C193.12708501 358.2250073 178.64183538 364.3647857 164 368 C162.19402344 368.44859375 162.19402344 368.44859375 160.3515625 368.90625 C144.86740667 372.26619824 128.74702396 371.27323987 113 371 C111.72709541 324.04396398 126.79120547 280.43560169 159 246 C174.01047356 230.79514621 192.64921049 219.65460416 211.9375 210.75 C212.86240234 210.31993652 213.78730469 209.88987305 214.74023438 209.44677734 C219.18188407 207.45239259 223.42942162 205.78907764 228.19140625 204.7421875 C236.26002707 203.23083369 236.26002707 203.23083369 242.21582031 198.11914062 C244.32193902 193.1694363 245.30821274 187.95513288 246.375 182.70361328 C247.36988664 178.39995132 248.94783563 174.39033571 250.625 170.3125 C250.95395264 169.50514404 251.28290527 168.69778809 251.62182617 167.8659668 C258.48813331 151.36279357 266.09261234 134.91746499 276 120 C276.44279297 119.33097656 276.88558594 118.66195312 277.34179688 117.97265625 C290.83763172 97.79369879 307.3588422 79.56708824 326 64 C329.82502888 65.7443813 331.67414219 67.77638484 334.25 71.125 C335.30960938 72.49011719 335.30960938 72.49011719 336.390625 73.8828125 C336.92171875 74.58148438 337.4528125 75.28015625 338 76 C336.59473786 79.27655508 334.97082527 81.15432686 332.25 83.4375 C331.53457031 84.0459375 330.81914063 84.654375 330.08203125 85.28125 C328.38192611 86.68471391 326.66239823 88.06462181 324.9375 89.4375 C321.96948553 92.02661901 319.50247995 94.73779656 316.9609375 97.734375 C315.60726082 99.29838392 314.21345491 100.82823476 312.7890625 102.328125 C293.11634995 123.08315506 279.4216949 148.54967662 269 175 C268.65291992 175.87495117 268.30583984 176.74990234 267.94824219 177.65136719 C265.92931644 182.75408462 263.94808239 187.8698409 262 193 C305.30762988 176.98683523 342.11308509 158.10543859 362.8125 114.5625 C364.26093844 111.39627342 365.64527777 108.20732814 367 105 C367.31807617 104.25733887 367.63615234 103.51467773 367.96386719 102.74951172 C379.20983517 76.00949066 381.602756 47.58831822 384 19 C356.73323715 19.97151477 356.73323715 19.97151477 330 25 C329.26539551 25.1954541 328.53079102 25.3909082 327.77392578 25.59228516 C297.78104918 33.82806087 272.86536641 52.02412328 256 78 C255.56284668 78.66306152 255.12569336 79.32612305 254.67529297 80.00927734 C241.44794535 100.29688125 231.67884908 122.76704773 221.58666992 144.72485352 C214.69052631 159.72690095 208.13409609 173.59892056 197 186 C196.31421875 186.79148437 195.6284375 187.58296875 194.921875 188.3984375 C184.04175199 200.2053858 168.10758659 207.36660513 152.1171875 208.203125 C132.72232371 208.56764728 115.26559061 202.51608498 101 189 C81.35788444 169.82005187 70.78340735 140.70453442 58.73754883 116.4387207 C54.1956655 107.30169985 49.57288671 98.2183365 44.79672241 89.20147705 C39.76171201 79.68698602 34.88657379 70.09131244 30 60.5 C27.98905469 56.55559474 25.9772682 52.61161956 23.96484375 48.66796875 C23.465327 47.68898117 22.96581024 46.70999359 22.45115662 45.70133972 C19.15432508 39.24545897 15.83671201 32.80065627 12.50390625 26.36328125 C12.07951263 25.54258148 11.65511902 24.72188171 11.21786499 23.87631226 C9.22734117 20.02709221 7.23320798 16.17983327 5.23242188 12.3359375 C4.53105943 10.98056735 3.82987625 9.62510441 3.12890625 8.26953125 C2.52119385 7.10010986 1.91348145 5.93068848 1.28735352 4.72583008 C0 2 0 2 0 0 Z " fill="#060605" transform="translate(503,198)"/>
<path d="M0 0 C-0.5608216 11.75629982 -2.18970173 23.26682754 -4.0625 34.875 C-4.21517334 35.82377014 -4.36784668 36.77254028 -4.52514648 37.75006104 C-8.61435441 62.78300127 -14.7304898 85.66939094 -32 105 C-32.51691406 105.62261719 -33.03382813 106.24523437 -33.56640625 106.88671875 C-47.81857323 122.85063424 -72.0807666 130.17574765 -92.66796875 131.8828125 C-96.45172132 132.07295082 -100.21214148 132.06109449 -104 132 C-102.25103255 93.40209774 -86.92032496 58.941071 -59.1171875 32.23046875 C-46.18439007 20.43935706 -18.47622094 0 0 0 Z " fill="#F3F3EE" transform="translate(739,419)"/>
<path d="M0 0 C0.66 0.33 1.32 0.66 2 1 C2 1.66 2 2.32 2 3 C1.01 3.495 1.01 3.495 0 4 C-1.13102526 6.34038186 -1.13102526 6.34038186 -2.125 9.0625 C-2.65480469 10.44115234 -2.65480469 10.44115234 -3.1953125 11.84765625 C-3.46085938 12.55792969 -3.72640625 13.26820313 -4 14 C-6.31 14 -8.62 14 -11 14 C-7.46386286 9.21224044 -3.85516296 4.53548584 0 0 Z M2 0 C4 1 4 1 4 1 Z " fill="#E3E2DD" transform="translate(815,300)"/>
<path d="M0 0 C0.33 0.66 0.66 1.32 1 2 C1.66 2.33 2.32 2.66 3 3 C0.36 4.65 -2.28 6.3 -5 8 C-5.66 7.34 -6.32 6.68 -7 6 C-7 4 -7 4 -6 2 C-2.9375 0.75 -2.9375 0.75 0 0 Z " fill="#EBE8DE" transform="translate(1252,667)"/>
<path d="M0 0 C0.66 0.66 1.32 1.32 2 2 C0.66666667 5.33333333 -0.66666667 8.66666667 -2 12 C-2.99 11.67 -3.98 11.34 -5 11 C-4.55123384 9.35153231 -4.09069512 7.70626545 -3.625 6.0625 C-3.36976562 5.14597656 -3.11453125 4.22945312 -2.8515625 3.28515625 C-2 1 -2 1 0 0 Z " fill="#ECEADD" transform="translate(1250,756)"/>
<path d="M0 0 C0 4.46153846 0 4.46153846 -1 7 C-3.5625 9.25 -3.5625 9.25 -6 11 C-6.33 10.34 -6.66 9.68 -7 9 C-5.19168608 5.38337216 -2.94721162 2.74395564 0 0 Z M0 4 C0.66 4 1.32 4 2 4 C1.67 4.66 1.34 5.32 1 6 C0.67 5.34 0.34 4.68 0 4 Z " fill="#ECE9E0" transform="translate(1264,631)"/>
<path d="M0 0 C0.66 0 1.32 0 2 0 C1.44894091 3.9492568 0.61064629 7.34920174 -1 11 C-1.99 11 -2.98 11 -4 11 C-3.5247412 9.35303396 -3.04468109 7.70745272 -2.5625 6.0625 C-2.29566406 5.14597656 -2.02882813 4.22945312 -1.75390625 3.28515625 C-1 1 -1 1 0 0 Z " fill="#EAEAE3" transform="translate(1069,139)"/>
<path d="M0 0 C0.25 2.8125 0.25 2.8125 0 6 C-2 7.875 -2 7.875 -4 9 C-4.66 8.67 -5.32 8.34 -6 8 C-3.18918919 0 -3.18918919 0 0 0 Z " fill="#E8E6DA" transform="translate(1408,298)"/>
<path d="M0 0 C0.66 0.33 1.32 0.66 2 1 C2.33 2.32 2.66 3.64 3 5 C0.03 5 -2.94 5 -6 5 C-6 4.34 -6 3.68 -6 3 C-4.03533587 1.93224776 -2.03144641 0.93446535 0 0 Z " fill="#E8E6D9" transform="translate(1144,763)"/>
<path d="M0 0 C0.99 0.33 1.98 0.66 3 1 C1.68 3.64 0.36 6.28 -1 9 C-3 6 -3 6 -2.75 3.9375 C-2 2 -2 2 0 0 Z " fill="#E5E4E0" transform="translate(724,296)"/>
<path d="M0 0 C0.66 0 1.32 0 2 0 C1.67 1.98 1.34 3.96 1 6 C-1.31 6 -3.62 6 -6 6 C-5.38125 5.7525 -4.7625 5.505 -4.125 5.25 C-1.64931313 3.79371361 -1.04874998 2.62187494 0 0 Z " fill="#EDEAE2" transform="translate(632,762)"/>
<path d="M0 0 C2.49349318 1.24674659 3.46640071 2.69960106 5 5 C5 5.66 5 6.32 5 7 C4.01 7.33 3.02 7.66 2 8 C2 7.01 2 6.02 2 5 C0.68 4.67 -0.64 4.34 -2 4 C-1.34 2.68 -0.68 1.36 0 0 Z " fill="#ECE9E0" transform="translate(1230,37)"/>
<path d="M0 0 C0 3.95564164 -1.40521394 5.10866696 -4 8 C-4.99 8.66 -5.98 9.32 -7 10 C-7.99 9.67 -8.98 9.34 -10 9 C-6.7 6.03 -3.4 3.06 0 0 Z " fill="#1C1C1A" transform="translate(707,523)"/>
<path d="M0 0 C0.99 0 1.98 0 3 0 C3 1.32 3 2.64 3 4 C1.02 4.99 1.02 4.99 -1 6 C-1.33 5.01 -1.66 4.02 -2 3 C-1.34 2.01 -0.68 1.02 0 0 Z M-2 6 C-1.34 6.66 -0.68 7.32 0 8 C-0.99 7.67 -1.98 7.34 -3 7 C-2.67 6.67 -2.34 6.34 -2 6 Z " fill="#E4DED0" transform="translate(1399,760)"/>
<path d="M0 0 C0.33 0 0.66 0 1 0 C0.67 2.64 0.34 5.28 0 8 C-0.99 8 -1.98 8 -3 8 C-2.45276317 4.62537285 -1.9451 2.91765 0 0 Z " fill="#E5E3D7" transform="translate(1398,465)"/>
<path d="M0 0 C0.66 0 1.32 0 2 0 C2.6875 2.3125 2.6875 2.3125 3 5 C1.5625 6.8125 1.5625 6.8125 0 8 C-1.125 5.6875 -1.125 5.6875 -2 3 C-1.34 2.01 -0.68 1.02 0 0 Z " fill="#EAEAE5" transform="translate(555,254)"/>
<path d="M0 0 C0.33 0.66 0.66 1.32 1 2 C0.06421005 4.35981813 -0.93347808 6.69631264 -2 9 C-2.66 8.67 -3.32 8.34 -4 8 C-4 6.68 -4 5.36 -4 4 C-3.34 4 -2.68 4 -2 4 C-1.34 2.68 -0.68 1.36 0 0 Z " fill="#EEE9E1" transform="translate(297,698)"/>
<path d="M0 0 C0.33 0.66 0.66 1.32 1 2 C1.66 2.33 2.32 2.66 3 3 C2.67 4.32 2.34 5.64 2 7 C1.01 7 0.02 7 -1 7 C-0.67 4.69 -0.34 2.38 0 0 Z " fill="#EEE9E2" transform="translate(1307,416)"/>
<path d="M0 0 C2.475 0.99 2.475 0.99 5 2 C2.64046906 4.35953094 1.22104383 4.49141413 -2 5 C-1.34 3.35 -0.68 1.7 0 0 Z " fill="#DFDFDD" transform="translate(767,386)"/>
<path d="M0 0 C0.66 0.99 1.32 1.98 2 3 C0.75453595 6.73639216 -0.63404953 7.18756513 -4 9 C-2.80100302 5.9168649 -1.52299523 2.93720508 0 0 Z " fill="#E2E2DF" transform="translate(879,326)"/>
<path d="M0 0 C0.66 0 1.32 0 2 0 C1.25 4.75 1.25 4.75 -1 7 C-1.625 4.625 -1.625 4.625 -2 2 C-1.34 1.34 -0.68 0.68 0 0 Z " fill="#E3E3DF" transform="translate(712,321)"/>
<path d="M0 0 C0.99 0 1.98 0 3 0 C3 0.99 3 1.98 3 3 C0 5 0 5 -3 5 C-2.67 4.01 -2.34 3.02 -2 2 C-1.34 2 -0.68 2 0 2 C0 1.34 0 0.68 0 0 Z " fill="#E8E8DF" transform="translate(196,150)"/>
<path d="M0 0 C0.33 0.99 0.66 1.98 1 3 C-0.4375 5.6875 -0.4375 5.6875 -2 8 C-2.6875 6.25 -2.6875 6.25 -3 4 C-1.5625 1.75 -1.5625 1.75 0 0 Z " fill="#ECE8E1" transform="translate(905,741)"/>
<path d="M0 0 C0 0.99 0 1.98 0 3 C-2.5 5.1875 -2.5 5.1875 -5 7 C-5.33 6.01 -5.66 5.02 -6 4 C-3.94766315 1.7522025 -2.99332739 0.9977758 0 0 Z " fill="#EDEAE3" transform="translate(935,727)"/>
<path d="M0 0 C0.33 0.99 0.66 1.98 1 3 C-0.8125 5.6875 -0.8125 5.6875 -3 8 C-3.66 8 -4.32 8 -5 8 C-5 5 -5 5 -2.5 2.3125 C-1.675 1.549375 -0.85 0.78625 0 0 Z " fill="#E2DECF" transform="translate(1397,713)"/>
<path d="M0 0 C0.33 1.32 0.66 2.64 1 4 C-0.65 4.66 -2.3 5.32 -4 6 C-3.67 4.35 -3.34 2.7 -3 1 C-2.01 0.67 -1.02 0.34 0 0 Z " fill="#EBE8D9" transform="translate(1399,695)"/>
<path d="M0 0 C0 1.98 0 3.96 0 6 C-2.475 5.01 -2.475 5.01 -5 4 C-1.125 0 -1.125 0 0 0 Z " fill="#E9E6DA" transform="translate(1408,382)"/>
</svg>
